<?xml version="1.0" standalone="no"?><!DOCTYPE svg PUBLIC "-//W3C//DTD SVG 20010904//EN" "http://www.w3.org/TR/2001/REC-SVG-20010904/DTD/svg10.dtd"><svg version="1.0" xmlns="http://www.w3.org/2000/svg" width="448.000000pt" height="410.000000pt" viewBox="0 0 448.000000 410.000000" preserveAspectRatio="xMidYMid meet"><g transform="translate(0.000000,410.000000) scale(0.100000,-0.100000)"fill="#000000" stroke="none"><path d="M261 4089 c-101 -20 -190 -91 -234 -187 l-22 -47 -3 -1735 c-3 -1933-8 -1788 66 -1885 24 -32 59 -61 102 -84 l65 -36 1475 -5 1475 -5 60 -27 c304-134 674 -77 939 146 112 94 224 279 268 441 32 119 32 347 0 465 -88 326-326 553 -663 633 l-89 22 0 1011 c0 893 -2 1017 -16 1064 -30 101 -83 162-184 209 l-55 26 -1570 1 c-863 1 -1590 -2 -1614 -7z m3188 -174 c44 -22 79-71 86 -118 3 -23 5 -390 3 -815 l-3 -774 -232 205 c-128 113 -242 208 -253212 -11 3 -30 3 -42 -1 -12 -4 -230 -188 -484 -410 l-462 -403 -324 155 c-442214 -465 224 -497 224 -17 0 -223 -106 -552 -284 l-524 -283 -3 1090 c-2 1072-2 1091 18 1132 12 25 34 49 57 63 l38 22 1573 0 c1362 0 1577 -2 1601 -15zm-156 -1708 l248 -219 -3 -102 -3 -101 -64 -7 c-378 -42 -687 -348 -757 -752-42 -235 24 -486 175 -676 l60 -75 -1327 -3 -1326 -2 -46 22 c-30 16 -52 36-67 63 -23 40 -23 41 -23 561 l0 521 488 263 c268 145 512 277 543 294 l56 30399 -192 c220 -107 411 -194 426 -194 15 -1 37 6 50 15 13 8 221 189 463 400242 212 444 382 450 379 5 -3 122 -105 258 -225z m483 -607 c345 -87 560 -385541 -750 -10 -188 -72 -325 -212 -466 -148 -149 -304 -214 -513 -214 -127 0-208 18 -317 70 -280 135 -448 443 -406 744 14 98 58 228 102 303 70 117 206230 339 283 134 53 325 66 466 30z"/><path d="M898 3406 c-175 -48 -263 -239 -186 -402 28 -61 108 -130 171 -14964 -19 100 -19 164 0 200 60 269 313 126 466 -72 77 -182 111 -275 85z m140-174 c78 -51 63 -182 -25 -218 -48 -21 -94 -11 -132 27 -106 105 31 273 157191z"/><path d="M3150 951 c-35 -35 -38 -68 -9 -105 l20 -26 428 0 428 0 21 23 c2729 28 77 3 108 l-19 24 -422 3 -421 3 -29 -30z"/></g></svg>